REM GENRE "Modern Rock"
REM DATE 2011
REM DISCID 12345678
REM COMMENT "Flacon v6.0.0"
REM TOTALDISCS 5
REM DISCNUMBER 2
PERFORMER "Test for flacon"
TITLE "Short file"
FILE "00. (HTOA).wav" WAVE
  TRACK 01 AUDIO
    INDEX 00 00:00:00
FILE "01. Short track 1.wav" WAVE
    INDEX 01 00:00:00
    TITLE "Short track 1"

FILE "02. Short track 2.wav" WAVE
  TRACK 02 AUDIO
    INDEX 01 00:00:00
    TITLE "Short track 2"

  TRACK 03 AUDIO
    INDEX 00 00:36:22
FILE "03. Short track 3.wav" WAVE
    INDEX 01 00:00:00
    TITLE "Short track 3"

  TRACK 04 AUDIO
    INDEX 00 01:14:44
FILE "04. Short track 4.wav" WAVE
    INDEX 01 00:00:00
    TITLE "Short track 4"
